<svg xmlns="http://www.w3.org/2000/svg" xmlns:xlink="http://www.w3.org/1999/xlink" width="500" zoomAndPan="magnify" viewBox="0 0 375 374.999991" height="500" preserveAspectRatio="xMidYMid meet" version="1.0"><defs><clipPath id="6277b85245"><path d="M 43 116.199219 L 330 116.199219 L 330 236 L 43 236 Z M 43 116.199219 " clip-rule="nonzero"/></clipPath><clipPath id="74934d3989"><path d="M 200 240 L 247 240 L 247 258.699219 L 200 258.699219 Z M 200 240 " clip-rule="nonzero"/></clipPath><clipPath id="3c2d8fa1a3"><path d="M 296 240 L 332.605469 240 L 332.605469 258 L 296 258 Z M 296 240 " clip-rule="nonzero"/></clipPath><clipPath id="cc048b052a"><path d="M 67 181.402344 L 187 181.402344 L 187 295.402344 L 67 295.402344 Z M 67 181.402344 " clip-rule="nonzero"/></clipPath></defs><rect x="-37.5" width="450" fill="#ffffff" y="-37.499999" height="449.999989" fill-opacity="1"/><rect x="-37.5" width="450" fill="#ffffff" y="-37.499999" height="449.999989" fill-opacity="1"/><rect x="-37.5" width="450" fill="#000000" y="-37.499999" height="449.999989" fill-opacity="1"/><g clip-path="url(#6277b85245)"><path fill="#c9e265" d="M 241.1875 199.941406 C 223.605469 197.136719 206.898438 190.242188 201.6875 172.222656 C 198.523438 161.273438 196.328125 141.148438 207.988281 134.03125 C 217.265625 128.371094 230.539062 129.828125 240.902344 129.804688 C 258.25 129.761719 275.597656 132.296875 292.203125 137.300781 C 300.445312 139.785156 307.171875 142.066406 312.894531 146.859375 C 314.109375 147.875 316.722656 150.3125 319.3125 153.988281 C 324.242188 160.988281 326.160156 168.515625 326.972656 173.433594 C 327.136719 177.257812 327.363281 185.78125 323.113281 193.230469 C 322.019531 195.144531 320.707031 196.882812 318.789062 198.300781 C 315.714844 200.574219 311.894531 201.40625 307.425781 201.539062 C 285.746094 202.183594 262.667969 203.363281 241.1875 199.941406 Z M 323.511719 230.085938 C 327.566406 226.058594 328.503906 220.683594 329.042969 212.21875 C 330.363281 191.535156 328.222656 175.308594 327.289062 172.003906 C 326.9375 169.164062 326.355469 165.535156 325.417969 161.277344 C 323.789062 153.886719 320.496094 145.699219 318.660156 139.566406 C 314.445312 125.445312 280.570312 123.28125 267.769531 121.03125 C 241.890625 116.476562 222.542969 116.203125 213.984375 116.269531 C 203.832031 116.34375 197.558594 116.976562 192.875 117.628906 C 181.050781 119.269531 171.753906 122.066406 162.917969 125.113281 C 138.652344 133.476562 119.902344 143.050781 116.15625 144.9375 C 69.433594 168.503906 42.625 185.519531 43.089844 186.355469 C 43.515625 187.117188 65.488281 172.207031 97.558594 169.34375 C 104.414062 168.730469 120.679688 167.28125 122.75 172.746094 C 125.6875 180.507812 98.109375 197.1875 96.878906 197.921875 C 81.554688 207.082031 67.757812 210.65625 63.902344 211.394531 C 70.800781 210.742188 109.558594 207.445312 133.644531 180.910156 C 138.964844 175.050781 145.589844 165.828125 154.066406 166.621094 C 158.074219 166.996094 161.601562 169.542969 170.40625 180.910156 C 184.140625 198.640625 189.976562 211.238281 190.832031 210.851562 C 191.824219 210.402344 187.164062 191.957031 174.492188 173.425781 C 165.382812 160.101562 155.117188 151.089844 147.625 145.457031 C 152.464844 143.046875 159.5 140.203125 168.367188 138.722656 C 174.078125 137.769531 179.214844 137.601562 183.507812 137.777344 C 180.933594 138.859375 179.125 141.402344 179.125 144.367188 L 179.125 172.449219 C 179.125 176.394531 182.324219 179.59375 186.273438 179.59375 C 188.371094 179.59375 190.257812 178.691406 191.566406 177.253906 C 192.441406 185.042969 193.351562 192.828125 194.296875 200.609375 C 195.367188 209.472656 196.484375 218.332031 197.640625 227.183594 C 198.726562 235.578125 239.5 234.757812 245.140625 235.003906 C 265.910156 235.914062 286.71875 235.902344 307.484375 234.976562 C 315.578125 234.617188 320.453125 233.113281 323.511719 230.085938 " fill-opacity="1" fill-rule="nonzero"/></g><path fill="#c9e265" d="M 62.835938 211.535156 C 62.847656 211.566406 63.21875 211.523438 63.902344 211.394531 C 63.199219 211.460938 62.824219 211.5 62.835938 211.535156 " fill-opacity="1" fill-rule="nonzero"/><g clip-path="url(#74934d3989)"><path fill="#c9e265" d="M 242.691406 244.78125 C 242.394531 243.878906 241.570312 243.257812 240.625 243.203125 C 229.199219 242.582031 218.382812 241.601562 208.25 240.378906 C 204.023438 239.875 200.304688 243.164062 200.304688 247.417969 L 200.304688 249.117188 C 200.304688 252.75 203.054688 255.796875 206.671875 256.167969 C 218.285156 257.351562 230.769531 258.238281 244.023438 258.65625 C 245.632812 258.707031 246.796875 257.148438 246.292969 255.621094 L 242.691406 244.78125 " fill-opacity="1" fill-rule="nonzero"/></g><g clip-path="url(#3c2d8fa1a3)"><path fill="#c9e265" d="M 332.140625 247.585938 C 332.136719 247.539062 332.132812 247.492188 332.132812 247.445312 C 331.9375 243.355469 328.324219 240.277344 324.253906 240.742188 C 316.839844 241.585938 309.046875 242.304688 300.910156 242.847656 C 299.886719 242.914062 299.03125 243.644531 298.804688 244.648438 L 296.550781 254.757812 C 296.214844 256.269531 297.429688 257.675781 298.972656 257.566406 C 308.398438 256.890625 317.398438 256 325.921875 254.957031 C 329.609375 254.507812 332.316406 251.289062 332.140625 247.585938 " fill-opacity="1" fill-rule="nonzero"/></g><path fill="#c9e265" d="M 301.414062 150.714844 L 230.605469 184.058594 C 230.605469 184.058594 253.753906 175.210938 301.414062 150.714844 " fill-opacity="1" fill-rule="nonzero"/><path fill="#c9e265" d="M 219.957031 184.058594 C 219.957031 184.058594 243.105469 175.210938 290.765625 150.714844 L 219.957031 184.058594 " fill-opacity="1" fill-rule="nonzero"/><g clip-path="url(#cc048b052a)"><path fill="#008037" d="M 113.464844 225.707031 L 127.863281 225.707031 C 131.480469 225.707031 131.480469 220.15625 127.863281 220.15625 L 89.402344 220.15625 C 85.785156 220.15625 85.785156 214.601562 89.402344 214.601562 L 107.167969 214.601562 C 110.785156 214.601562 110.660156 209.359375 107.667969 209.113281 L 97.507812 209.113281 C 93.890625 209.113281 93.890625 203.558594 97.507812 203.558594 L 100.1875 203.558594 C 101.121094 203.433594 102.304688 202.25 102.304688 200.875 C 102.304688 199.503906 101.308594 198.378906 100 198.132812 L 90.148438 198.132812 C 86.535156 198.132812 86.535156 192.578125 90.148438 192.578125 L 100.5 192.578125 C 104.113281 192.578125 103.988281 187.335938 100.996094 187.089844 L 79.304688 187.089844 C 75.6875 187.089844 75.6875 181.535156 79.304688 181.535156 L 110.785156 181.597656 C 112.21875 181.785156 113.402344 182.535156 114.210938 183.78125 L 132.476562 212.042969 C 134.410156 215.039062 138.773438 215.039062 140.769531 212.042969 L 159.222656 183.78125 C 160.15625 182.347656 161.652344 181.535156 163.335938 181.535156 L 179.730469 181.535156 C 183.71875 181.535156 186.027344 185.964844 183.78125 189.273438 L 152.988281 234.316406 C 151.804688 236 151.804688 238.183594 152.988281 239.871094 L 185.464844 287.535156 C 187.710938 290.84375 185.339844 295.273438 181.414062 295.273438 L 164.207031 295.273438 C 162.460938 295.273438 161.027344 294.460938 160.09375 293.027344 L 140.144531 262.578125 C 138.214844 259.585938 133.847656 259.585938 131.917969 262.578125 L 111.84375 293.089844 C 110.910156 294.523438 109.414062 295.335938 107.730469 295.335938 L 84.164062 295.335938 C 83.730469 293.710938 84.914062 292.027344 86.597656 291.902344 L 90.648438 291.902344 C 94.265625 291.902344 94.265625 286.351562 90.648438 286.351562 L 77.683594 286.351562 C 74.066406 286.351562 74.066406 280.796875 77.683594 280.796875 L 96.570312 280.796875 C 100.1875 280.796875 100.1875 275.246094 96.570312 275.246094 C 94.636719 275.246094 91.273438 275.683594 91.273438 272.5 C 91.273438 271.003906 92.519531 269.753906 94.015625 269.753906 L 110.160156 269.753906 C 113.777344 269.753906 113.777344 264.203125 110.160156 264.203125 L 98.941406 264.203125 C 95.324219 264.203125 95.324219 258.648438 98.941406 258.648438 L 117.515625 258.648438 C 121.132812 258.648438 121.132812 253.097656 117.515625 253.097656 L 104.550781 253.097656 C 100.933594 253.097656 100.933594 247.542969 104.550781 247.542969 C 111.71875 247.542969 118.886719 247.542969 126.058594 247.542969 C 129.671875 247.542969 129.671875 241.992188 126.058594 241.992188 L 117.390625 241.992188 C 113.777344 241.992188 113.777344 236.4375 117.390625 236.4375 L 120.445312 236.4375 C 123.875 236.0625 123.625 230.949219 120.136719 230.949219 C 116.769531 230.949219 113.402344 230.949219 110.035156 230.949219 C 106.421875 230.949219 106.421875 225.394531 110.035156 225.394531 L 113.464844 225.394531 Z M 102.492188 236.8125 L 110.160156 236.8125 C 113.777344 236.8125 113.777344 242.367188 110.160156 242.367188 L 102.492188 242.367188 C 98.816406 242.304688 98.816406 236.8125 102.492188 236.8125 Z M 75.875 203.683594 L 88.777344 203.683594 C 92.394531 203.683594 92.394531 209.238281 88.777344 209.238281 L 75.875 209.238281 C 72.195312 209.175781 72.195312 203.683594 75.875 203.683594 Z M 70.636719 181.722656 C 72.132812 181.722656 75.1875 181.472656 75.1875 184.46875 C 75.1875 187.460938 72.132812 187.210938 70.636719 187.210938 C 66.960938 187.273438 66.960938 181.722656 70.636719 181.722656 Z M 93.203125 247.855469 C 95.386719 247.855469 99.1875 247.292969 99.1875 250.601562 C 99.1875 253.90625 95.386719 253.347656 93.203125 253.347656 C 89.527344 253.347656 89.527344 247.855469 93.203125 247.855469 Z M 86.910156 225.707031 L 100.5 225.707031 C 104.113281 225.707031 104.113281 231.261719 100.5 231.261719 L 86.910156 231.261719 C 83.292969 231.261719 83.292969 225.707031 86.910156 225.707031 Z M 72.070312 258.898438 L 91.273438 258.898438 C 94.886719 258.898438 94.886719 264.453125 91.273438 264.453125 L 72.070312 264.453125 C 68.394531 264.453125 68.394531 258.898438 72.070312 258.898438 Z M 81.609375 269.941406 L 86.722656 269.941406 C 90.335938 269.941406 90.335938 275.496094 86.722656 275.496094 L 81.609375 275.496094 C 77.992188 275.496094 77.992188 269.941406 81.609375 269.941406 Z M 81.609375 269.941406 " fill-opacity="1" fill-rule="evenodd"/></g></svg>