<svg xmlns="http://www.w3.org/2000/svg" xmlns:xlink="http://www.w3.org/1999/xlink" width="1920" zoomAndPan="magnify" viewBox="0 0 1440 809.999993" height="1080" preserveAspectRatio="xMidYMid meet" version="1.0"><defs><g/><clipPath id="c18a33135e"><path d="M 521 217.320312 L 971 217.320312 L 971 405 L 521 405 Z M 521 217.320312 " clip-rule="nonzero"/></clipPath><clipPath id="a14e9a13ac"><path d="M 767 412 L 841 412 L 841 440.820312 L 767 440.820312 Z M 767 412 " clip-rule="nonzero"/></clipPath><clipPath id="964d03d9e9"><path d="M 723 441 L 838.601562 441 L 838.601562 608.144531 L 723 608.144531 Z M 723 441 " clip-rule="nonzero"/></clipPath><clipPath id="b75a67652f"><path d="M 652.601562 405.644531 L 768 405.644531 L 768 572 L 652.601562 572 Z M 652.601562 405.644531 " clip-rule="nonzero"/></clipPath></defs><rect x="-144" width="1728" fill="#ffffff" y="-80.999999" height="971.999992" fill-opacity="1"/><rect x="-144" width="1728" fill="#ffffff" y="-80.999999" height="971.999992" fill-opacity="1"/><rect x="-144" width="1728" fill="#000000" y="-80.999999" height="971.999992" fill-opacity="1"/><g clip-path="url(#c18a33135e)"><path fill="#c9e265" d="M 832.109375 348.664062 C 804.535156 344.269531 778.324219 333.453125 770.152344 305.191406 C 765.191406 288.019531 761.746094 256.453125 780.035156 245.289062 C 794.589844 236.410156 815.410156 238.699219 831.664062 238.660156 C 858.875 238.59375 886.085938 242.570312 912.132812 250.421875 C 925.0625 254.320312 935.609375 257.894531 944.585938 265.410156 C 946.492188 267.003906 950.59375 270.824219 954.65625 276.59375 C 962.382812 287.570312 965.398438 299.375 966.667969 307.089844 C 966.925781 313.09375 967.285156 326.457031 960.617188 338.136719 C 958.898438 341.144531 956.839844 343.867188 953.835938 346.09375 C 949.011719 349.65625 943.019531 350.960938 936.011719 351.171875 C 902.003906 352.183594 865.800781 354.035156 832.109375 348.664062 Z M 961.238281 395.941406 C 967.601562 389.632812 969.070312 381.199219 969.917969 367.921875 C 971.988281 335.480469 968.632812 310.03125 967.164062 304.847656 C 966.617188 300.394531 965.703125 294.699219 964.230469 288.027344 C 961.675781 276.433594 956.511719 263.59375 953.632812 253.96875 C 947.015625 231.824219 893.886719 228.433594 873.804688 224.902344 C 833.210938 217.757812 802.867188 217.328125 789.4375 217.429688 C 773.515625 217.546875 763.679688 218.542969 756.332031 219.566406 C 737.785156 222.136719 723.203125 226.527344 709.339844 231.304688 C 671.28125 244.421875 641.867188 259.433594 635.992188 262.398438 C 562.707031 299.359375 520.652344 326.046875 521.382812 327.359375 C 522.050781 328.554688 556.515625 305.167969 606.820312 300.675781 C 617.574219 299.714844 643.085938 297.441406 646.332031 306.011719 C 650.945312 318.1875 607.683594 344.34375 605.75 345.5 C 581.714844 359.867188 560.074219 365.476562 554.027344 366.628906 C 564.851562 365.605469 625.640625 360.433594 663.417969 318.820312 C 671.765625 309.625 682.160156 295.160156 695.457031 296.40625 C 701.742188 296.996094 707.277344 300.988281 721.089844 318.820312 C 742.628906 346.628906 751.785156 366.386719 753.128906 365.78125 C 754.683594 365.074219 747.367188 336.144531 727.496094 307.078125 C 713.207031 286.179688 697.101562 272.046875 685.351562 263.210938 C 692.945312 259.429688 703.980469 254.96875 717.882812 252.648438 C 726.84375 251.152344 734.902344 250.894531 741.636719 251.167969 C 737.597656 252.863281 734.761719 256.851562 734.761719 261.503906 L 734.761719 305.546875 C 734.761719 311.734375 739.78125 316.753906 745.972656 316.753906 C 749.265625 316.753906 752.226562 315.335938 754.277344 313.082031 C 755.652344 325.300781 757.078125 337.511719 758.558594 349.714844 C 760.238281 363.613281 761.988281 377.507812 763.804688 391.390625 C 765.507812 404.5625 829.464844 403.273438 838.3125 403.664062 C 870.886719 405.085938 903.527344 405.070312 936.101562 403.617188 C 948.796875 403.050781 956.441406 400.691406 961.238281 395.941406 " fill-opacity="1" fill-rule="nonzero"/></g><path fill="#c9e265" d="M 552.355469 366.847656 C 552.371094 366.898438 552.957031 366.832031 554.027344 366.628906 C 552.921875 366.734375 552.335938 366.796875 552.355469 366.847656 " fill-opacity="1" fill-rule="nonzero"/><g clip-path="url(#a14e9a13ac)"><path fill="#c9e265" d="M 834.472656 418.996094 C 834.003906 417.582031 832.714844 416.601562 831.226562 416.519531 C 813.308594 415.542969 796.34375 414.007812 780.445312 412.09375 C 773.816406 411.300781 767.980469 416.457031 767.980469 423.125 L 767.980469 425.792969 C 767.980469 431.492188 772.296875 436.269531 777.96875 436.851562 C 796.191406 438.707031 815.765625 440.097656 836.558594 440.757812 C 839.082031 440.835938 840.910156 438.386719 840.117188 435.996094 L 834.472656 418.996094 " fill-opacity="1" fill-rule="nonzero"/></g><path fill="#c9e265" d="M 974.773438 423.394531 C 974.769531 423.320312 974.765625 423.242188 974.761719 423.167969 C 974.457031 416.753906 968.789062 411.929688 962.40625 412.65625 C 950.773438 413.980469 938.554688 415.109375 925.789062 415.960938 C 924.183594 416.066406 922.839844 417.210938 922.488281 418.78125 L 918.953125 434.644531 C 918.421875 437.011719 920.328125 439.214844 922.75 439.046875 C 937.535156 437.988281 951.648438 436.589844 965.023438 434.953125 C 970.804688 434.246094 975.050781 429.203125 974.773438 423.394531 " fill-opacity="1" fill-rule="nonzero"/><path fill="#c9e265" d="M 926.578125 271.457031 L 815.515625 323.753906 C 815.515625 323.753906 851.824219 309.878906 926.578125 271.457031 " fill-opacity="1" fill-rule="nonzero"/><path fill="#c9e265" d="M 798.808594 323.753906 C 798.808594 323.753906 835.121094 309.878906 909.875 271.457031 L 798.808594 323.753906 " fill-opacity="1" fill-rule="nonzero"/><path stroke-linecap="butt" transform="matrix(0.750365, 0, 0, 0.75, 855.109187, 444.68035)" fill="none" stroke-linejoin="miter" d="M 0.000250274 0.999117 L 320.849229 0.999117 " stroke="#008037" stroke-width="2" stroke-opacity="1" stroke-miterlimit="4"/><g clip-path="url(#964d03d9e9)"><path fill="#c9e265" d="M 838.503906 607.359375 C 833.15625 598.832031 827.800781 590.304688 822.441406 581.78125 L 814.402344 569.019531 L 806.328125 556.257812 L 790.160156 530.753906 L 774.992188 506.859375 L 794.523438 478.171875 L 799.664062 470.632812 C 801.382812 468.121094 803.089844 465.605469 804.824219 463.101562 L 815.210938 448.089844 L 819.414062 442.019531 L 764.015625 441.648438 L 762.851562 443.734375 C 761.144531 446.789062 759.472656 449.867188 757.789062 452.933594 L 756.53125 455.238281 L 755.289062 457.554688 L 752.789062 462.175781 L 747.851562 471.445312 L 745.335938 476.226562 C 744.375 474.769531 743.417969 473.316406 742.453125 471.863281 L 739.511719 467.457031 L 736.535156 463.0625 L 733.5625 458.683594 L 730.546875 454.320312 C 728.527344 451.414062 726.476562 448.527344 724.398438 445.660156 C 724.335938 445.558594 724.25 445.492188 724.132812 445.460938 C 724.019531 445.429688 723.910156 445.445312 723.808594 445.507812 C 723.707031 445.566406 723.640625 445.652344 723.609375 445.769531 C 723.578125 445.882812 723.59375 445.992188 723.652344 446.09375 C 725.164062 449.292969 726.714844 452.472656 728.308594 455.632812 L 730.691406 460.371094 L 733.109375 465.09375 L 735.542969 469.800781 L 738 474.496094 C 739.65625 477.617188 741.304688 480.738281 742.980469 483.847656 L 745.402344 488.332031 L 748.285156 483.8125 C 750.164062 480.855469 752 477.882812 753.859375 474.914062 L 759.386719 465.992188 L 762.125 461.507812 L 763.492188 459.277344 L 764.851562 457.046875 C 766.222656 454.773438 767.597656 452.507812 768.957031 450.230469 C 770.042969 450.230469 803.160156 450.105469 804.476562 450.078125 L 798.785156 459.117188 C 797.167969 461.695312 795.523438 464.25 793.890625 466.820312 L 788.976562 474.511719 L 769.292969 505.261719 L 768.265625 506.859375 L 769.292969 508.347656 L 786.359375 533.261719 L 803.460938 558.152344 L 812.011719 570.589844 L 820.589844 583.015625 C 826.304688 591.308594 832.042969 599.585938 837.796875 607.839844 C 837.863281 607.9375 837.953125 607.996094 838.066406 608.019531 C 838.179688 608.039062 838.285156 608.019531 838.382812 607.957031 C 838.476562 607.890625 838.539062 607.800781 838.5625 607.6875 C 838.585938 607.574219 838.566406 607.46875 838.503906 607.371094 Z M 838.503906 607.359375 " fill-opacity="1" fill-rule="nonzero"/></g><g clip-path="url(#b75a67652f)"><path fill="#c9e265" d="M 762.9375 557.976562 L 760.550781 553.234375 L 758.140625 548.515625 L 755.699219 543.808594 L 753.242188 539.117188 C 751.589844 535.992188 749.941406 532.867188 748.261719 529.761719 L 745.839844 525.273438 L 742.960938 529.800781 C 741.078125 532.753906 739.242188 535.726562 737.382812 538.695312 L 731.855469 547.621094 L 729.117188 552.101562 L 727.746094 554.332031 L 726.394531 556.5625 C 725.023438 558.835938 723.660156 561.109375 722.304688 563.378906 C 721.21875 563.378906 688.101562 563.511719 686.78125 563.535156 L 692.457031 554.496094 C 694.078125 551.917969 695.726562 549.359375 697.359375 546.792969 L 702.273438 539.101562 L 721.953125 508.351562 L 722.976562 506.75 L 721.953125 505.265625 L 704.890625 480.402344 L 687.789062 455.5625 L 679.238281 443.148438 L 670.648438 430.753906 C 664.9375 422.480469 659.203125 414.226562 653.449219 405.984375 C 653.382812 405.890625 653.296875 405.835938 653.183594 405.8125 C 653.074219 405.789062 652.972656 405.808594 652.875 405.867188 C 652.777344 405.929688 652.714844 406.015625 652.6875 406.132812 C 652.664062 406.246094 652.679688 406.351562 652.742188 406.449219 C 658.09375 414.964844 663.449219 423.472656 668.800781 431.976562 L 676.84375 444.726562 L 684.914062 457.460938 L 701.078125 482.917969 L 716.25 506.753906 L 696.734375 535.441406 L 691.589844 542.984375 C 689.871094 545.488281 688.167969 548.011719 686.429688 550.511719 L 676.042969 565.527344 L 671.847656 571.59375 L 727.242188 571.964844 L 728.414062 569.863281 C 730.117188 566.804688 731.792969 563.730469 733.472656 560.660156 L 734.734375 558.355469 L 735.980469 556.046875 L 738.480469 551.429688 L 743.390625 542.167969 L 745.90625 537.390625 L 748.789062 541.75 L 751.734375 546.15625 L 754.707031 550.550781 L 757.683594 554.929688 L 760.699219 559.292969 C 762.714844 562.199219 764.765625 565.085938 766.847656 567.949219 C 766.910156 568.039062 766.996094 568.09375 767.105469 568.113281 C 767.210938 568.136719 767.3125 568.117188 767.40625 568.0625 C 767.5 568.007812 767.5625 567.925781 767.59375 567.824219 C 767.625 567.71875 767.617188 567.617188 767.570312 567.519531 C 766.074219 564.328125 764.527344 561.148438 762.9375 557.976562 Z M 762.9375 557.976562 " fill-opacity="1" fill-rule="nonzero"/></g><g fill="#008037" fill-opacity="1"><g transform="translate(281.83763, 465.470421)"><g><path d="M 52.824219 -55.371094 C 52.824219 -56.683594 52.328125 -57.503906 51.015625 -57.503906 L 3.449219 -57.503906 C 2.136719 -57.503906 1.644531 -56.683594 1.644531 -55.371094 L 1.644531 -39.925781 C 1.644531 -39.019531 1.890625 -38.445312 2.792969 -38.445312 L 3.285156 -38.445312 C 4.023438 -38.445312 4.847656 -39.515625 5.585938 -40.582031 L 17.582031 -56.355469 L 20.207031 -56.355469 L 20.207031 -2.136719 C 20.207031 -0.820312 20.703125 0 22.015625 0 L 32.449219 0 C 33.765625 0 34.257812 -0.820312 34.257812 -2.136719 L 34.257812 -56.355469 L 36.886719 -56.355469 L 48.878906 -40.582031 C 49.699219 -39.515625 50.441406 -38.445312 51.179688 -38.445312 L 51.671875 -38.445312 C 52.574219 -38.445312 52.824219 -39.019531 52.824219 -39.925781 Z M 52.824219 -55.371094 "/></g></g></g><g fill="#008037" fill-opacity="1"><g transform="translate(344.10098, 465.470421)"><g><path d="M 7.394531 -2.136719 C 7.394531 -0.820312 7.886719 0 9.199219 0 L 19.632812 0 C 20.949219 0 21.441406 -0.820312 21.441406 -2.136719 L 21.441406 -55.371094 C 21.441406 -56.683594 20.949219 -57.503906 19.632812 -57.503906 L 9.199219 -57.503906 C 7.886719 -57.503906 7.394531 -56.683594 7.394531 -55.371094 Z M 7.394531 -2.136719 "/></g></g></g><g fill="#008037" fill-opacity="1"><g transform="translate(380.736982, 465.470421)"><g><path d="M 58.820312 0 C 60.214844 0 60.625 -1.148438 59.886719 -2.136719 L 46.332031 -19.714844 C 45.757812 -20.457031 44.773438 -20.457031 43.867188 -20.457031 C 31.875 -20.457031 29 -22.835938 26.207031 -26.289062 L 29.574219 -26.289062 C 46.414062 -26.289062 52.742188 -32.121094 52.742188 -42.472656 C 52.742188 -53.644531 46.742188 -57.503906 29.574219 -57.503906 L 9.199219 -57.503906 C 7.886719 -57.503906 7.394531 -56.683594 7.394531 -55.371094 L 7.394531 -2.136719 C 7.394531 -0.820312 7.886719 0 9.199219 0 L 19.632812 0 C 20.949219 0 21.441406 -0.820312 21.441406 -2.136719 L 21.441406 -26.289062 L 24.644531 -26.289062 L 42.964844 -2.136719 C 44.03125 -0.820312 45.265625 0 46.578125 0 Z M 26.863281 -56.355469 C 34.421875 -56.355469 37.707031 -52.742188 37.707031 -42.472656 C 37.707031 -32.203125 34.421875 -27.4375 26.863281 -27.4375 L 21.441406 -27.4375 L 21.441406 -56.355469 Z M 26.863281 -56.355469 "/></g></g></g><g fill="#008037" fill-opacity="1"><g transform="translate(450.064274, 465.470421)"><g><path d="M 15.199219 0 C 16.921875 0 17.496094 -0.902344 17.003906 -2.136719 L 10.925781 -15.691406 L 37.050781 -15.691406 L 43.128906 -2.136719 C 43.703125 -0.902344 44.609375 0 46.085938 0 L 58.082031 0 C 59.394531 0 59.804688 -1.066406 59.394531 -2.136719 L 35.570312 -55.371094 C 35.078125 -56.519531 34.011719 -57.503906 32.613281 -57.503906 L 27.601562 -57.503906 C 26.453125 -57.503906 25.300781 -56.519531 24.808594 -55.371094 L 0.984375 -2.136719 C 0.574219 -1.066406 0.984375 0 2.300781 0 Z M 36.558594 -16.839844 L 10.433594 -16.839844 L 9.613281 -18.648438 L 22.671875 -47.976562 Z M 36.558594 -16.839844 "/></g></g></g><g fill="#008037" fill-opacity="1"><g transform="translate(518.241627, 465.470421)"><g><path d="M 4.765625 -57.503906 C 4.355469 -57.503906 4.023438 -57.257812 4.023438 -56.929688 L 4.023438 -56.765625 C 4.023438 -56.4375 4.109375 -56.027344 4.601562 -55.371094 L 7.558594 -51.507812 L 7.558594 -2.136719 C 7.558594 -0.820312 8.050781 0 9.363281 0 L 21.113281 0 C 21.523438 0 21.6875 -0.246094 21.6875 -0.574219 L 21.6875 -0.984375 C 21.6875 -1.5625 21.605469 -1.890625 21.113281 -2.628906 L 8.707031 -18.894531 L 8.707031 -49.949219 L 45.265625 -2.136719 C 46.414062 -0.738281 47.484375 0 48.550781 0 L 51.671875 0 C 52.988281 0 53.480469 -0.820312 53.480469 -2.136719 L 53.480469 -55.371094 C 53.480469 -56.683594 52.988281 -57.503906 51.671875 -57.503906 L 42.308594 -57.503906 C 41.898438 -57.503906 41.730469 -57.257812 41.730469 -56.929688 L 41.730469 -56.519531 C 41.730469 -55.945312 41.730469 -55.535156 42.308594 -54.875 L 52.328125 -41.730469 L 52.328125 -21.277344 L 52.164062 -21.277344 L 23.742188 -55.78125 C 22.671875 -57.011719 21.933594 -57.503906 20.703125 -57.503906 Z M 4.765625 -57.503906 "/></g></g></g><g fill="#008037" fill-opacity="1"><g transform="translate(586.911796, 465.470421)"><g><path d="M 15.199219 0 C 16.921875 0 17.496094 -0.902344 17.003906 -2.136719 L 10.925781 -15.691406 L 37.050781 -15.691406 L 43.128906 -2.136719 C 43.703125 -0.902344 44.609375 0 46.085938 0 L 58.082031 0 C 59.394531 0 59.804688 -1.066406 59.394531 -2.136719 L 35.570312 -55.371094 C 35.078125 -56.519531 34.011719 -57.503906 32.613281 -57.503906 L 27.601562 -57.503906 C 26.453125 -57.503906 25.300781 -56.519531 24.808594 -55.371094 L 0.984375 -2.136719 C 0.574219 -1.066406 0.984375 0 2.300781 0 Z M 36.558594 -16.839844 L 10.433594 -16.839844 L 9.613281 -18.648438 L 22.671875 -47.976562 Z M 36.558594 -16.839844 "/></g></g></g><g fill="#008037" fill-opacity="1"><g transform="translate(815.573926, 517.356647)"><g><path d="M 52.90625 -38.9375 C 52.90625 -50.6875 44.691406 -57.503906 28.34375 -57.503906 L 9.199219 -57.503906 C 7.886719 -57.503906 7.394531 -56.683594 7.394531 -55.371094 L 7.394531 -2.136719 C 7.394531 -0.820312 7.886719 0 9.199219 0 L 19.632812 0 C 20.949219 0 21.441406 -0.820312 21.441406 -2.136719 L 21.441406 -20.375 L 28.34375 -20.375 C 44.691406 -20.375 52.90625 -27.191406 52.90625 -38.9375 Z M 21.441406 -56.355469 L 26.863281 -56.355469 C 35.980469 -56.355469 37.871094 -45.429688 37.871094 -38.9375 C 37.871094 -32.449219 35.980469 -21.523438 26.863281 -21.523438 L 21.441406 -21.523438 Z M 21.441406 -56.355469 "/></g></g></g><g fill="#008037" fill-opacity="1"><g transform="translate(877.919419, 517.356647)"><g><path d="M 58.820312 0 C 60.214844 0 60.625 -1.148438 59.886719 -2.136719 L 46.332031 -19.714844 C 45.757812 -20.457031 44.773438 -20.457031 43.867188 -20.457031 C 31.875 -20.457031 29 -22.835938 26.207031 -26.289062 L 29.574219 -26.289062 C 46.414062 -26.289062 52.742188 -32.121094 52.742188 -42.472656 C 52.742188 -53.644531 46.742188 -57.503906 29.574219 -57.503906 L 9.199219 -57.503906 C 7.886719 -57.503906 7.394531 -56.683594 7.394531 -55.371094 L 7.394531 -2.136719 C 7.394531 -0.820312 7.886719 0 9.199219 0 L 19.632812 0 C 20.949219 0 21.441406 -0.820312 21.441406 -2.136719 L 21.441406 -26.289062 L 24.644531 -26.289062 L 42.964844 -2.136719 C 44.03125 -0.820312 45.265625 0 46.578125 0 Z M 26.863281 -56.355469 C 34.421875 -56.355469 37.707031 -52.742188 37.707031 -42.472656 C 37.707031 -32.203125 34.421875 -27.4375 26.863281 -27.4375 L 21.441406 -27.4375 L 21.441406 -56.355469 Z M 26.863281 -56.355469 "/></g></g></g><g fill="#008037" fill-opacity="1"><g transform="translate(947.246712, 517.356647)"><g><path d="M 9.199219 -57.503906 C 7.886719 -57.503906 7.394531 -56.683594 7.394531 -55.371094 L 7.394531 -2.136719 C 7.394531 -0.820312 7.886719 0 9.199219 0 L 46.660156 0 C 47.8125 0 48.46875 -0.820312 48.960938 -2.136719 L 54.054688 -14.871094 C 54.21875 -15.28125 54.382812 -15.691406 53.972656 -16.019531 L 52.988281 -16.757812 C 52.824219 -16.921875 52.660156 -16.921875 52.492188 -16.921875 C 52.246094 -16.921875 52 -16.757812 51.671875 -16.59375 L 29.65625 -1.148438 L 21.441406 -1.148438 L 21.441406 -28.34375 L 44.03125 -27.929688 L 44.03125 -29.902344 L 21.441406 -29.492188 L 21.441406 -56.355469 L 29.65625 -56.355469 L 43.785156 -44.441406 C 44.9375 -43.539062 46.332031 -42.472656 47.484375 -42.472656 L 47.976562 -42.472656 C 49.289062 -42.472656 49.78125 -43.292969 49.78125 -44.609375 L 49.78125 -55.371094 C 49.78125 -56.683594 49.289062 -57.503906 47.976562 -57.503906 Z M 9.199219 -57.503906 "/></g></g></g><g fill="#008037" fill-opacity="1"><g transform="translate(1010.98857, 517.356647)"><g><path d="M 30.558594 -35.160156 C 23.90625 -37.050781 19.140625 -39.433594 19.140625 -45.59375 C 19.140625 -50.113281 21.605469 -57.339844 27.273438 -57.339844 L 30.558594 -57.339844 L 46.332031 -39.1875 C 47.152344 -38.117188 48.386719 -37.050781 48.960938 -37.050781 L 49.535156 -37.050781 C 50.441406 -37.050781 50.6875 -37.625 50.6875 -38.527344 L 50.6875 -55.617188 C 50.6875 -56.929688 50.195312 -57.667969 48.878906 -57.75 L 30.558594 -58.492188 L 26.863281 -58.492188 C 10.84375 -58.492188 5.339844 -49.863281 5.339844 -42.636719 C 5.339844 -33.433594 10.433594 -26.863281 25.382812 -22.34375 C 32.695312 -20.125 37.953125 -18.648438 37.953125 -11.417969 C 37.953125 -6.902344 35.242188 -0.328125 29.820312 -0.328125 L 25.796875 -0.328125 L 10.023438 -18.484375 C 9.199219 -19.550781 7.96875 -20.621094 7.394531 -20.621094 L 6.820312 -20.621094 C 5.914062 -20.621094 5.667969 -20.042969 5.667969 -19.140625 L 5.667969 -2.054688 C 5.667969 -0.738281 6.160156 0 7.476562 0.0820312 L 25.796875 0.820312 L 30.230469 0.820312 C 46.25 0.820312 52.90625 -7.230469 52.90625 -17.085938 C 52.90625 -27.601562 41.898438 -31.957031 30.558594 -35.160156 Z M 30.558594 -35.160156 "/></g></g></g><g fill="#008037" fill-opacity="1"><g transform="translate(1077.030304, 517.356647)"><g><path d="M 30.558594 -35.160156 C 23.90625 -37.050781 19.140625 -39.433594 19.140625 -45.59375 C 19.140625 -50.113281 21.605469 -57.339844 27.273438 -57.339844 L 30.558594 -57.339844 L 46.332031 -39.1875 C 47.152344 -38.117188 48.386719 -37.050781 48.960938 -37.050781 L 49.535156 -37.050781 C 50.441406 -37.050781 50.6875 -37.625 50.6875 -38.527344 L 50.6875 -55.617188 C 50.6875 -56.929688 50.195312 -57.667969 48.878906 -57.75 L 30.558594 -58.492188 L 26.863281 -58.492188 C 10.84375 -58.492188 5.339844 -49.863281 5.339844 -42.636719 C 5.339844 -33.433594 10.433594 -26.863281 25.382812 -22.34375 C 32.695312 -20.125 37.953125 -18.648438 37.953125 -11.417969 C 37.953125 -6.902344 35.242188 -0.328125 29.820312 -0.328125 L 25.796875 -0.328125 L 10.023438 -18.484375 C 9.199219 -19.550781 7.96875 -20.621094 7.394531 -20.621094 L 6.820312 -20.621094 C 5.914062 -20.621094 5.667969 -20.042969 5.667969 -19.140625 L 5.667969 -2.054688 C 5.667969 -0.738281 6.160156 0 7.476562 0.0820312 L 25.796875 0.820312 L 30.230469 0.820312 C 46.25 0.820312 52.90625 -7.230469 52.90625 -17.085938 C 52.90625 -27.601562 41.898438 -31.957031 30.558594 -35.160156 Z M 30.558594 -35.160156 "/></g></g></g><path stroke-linecap="butt" transform="matrix(0.750106, 0, 0, 0.75, 276.542834, 393.75)" fill="none" stroke-linejoin="miter" d="M 0.000179762 1 L 443.942918 1 " stroke="#008037" stroke-width="2" stroke-opacity="1" stroke-miterlimit="4"/></svg>