<svg xmlns="http://www.w3.org/2000/svg" xmlns:xlink="http://www.w3.org/1999/xlink" width="500" zoomAndPan="magnify" viewBox="0 0 375 374.999991" height="500" preserveAspectRatio="xMidYMid meet" version="1.0"><defs><g/><clipPath id="95861eca50"><path d="M 67 130.0625 L 276 130.0625 L 276 217 L 67 217 Z M 67 130.0625 " clip-rule="nonzero"/></clipPath><clipPath id="70bfea423f"><path d="M 181 220 L 216 220 L 216 233.5625 L 181 233.5625 Z M 181 220 " clip-rule="nonzero"/></clipPath><clipPath id="7e63d73c00"><path d="M 251 220 L 277.710938 220 L 277.710938 233 L 251 233 Z M 251 220 " clip-rule="nonzero"/></clipPath><clipPath id="6de43c6528"><path d="M 97 190.015625 L 177 190.015625 L 177 266.515625 L 97 266.515625 Z M 97 190.015625 " clip-rule="nonzero"/></clipPath></defs><g clip-path="url(#95861eca50)"><path fill="#c9e265" d="M 211.332031 190.882812 C 198.566406 188.851562 186.433594 183.839844 182.652344 170.753906 C 180.355469 162.800781 178.757812 148.183594 187.226562 143.015625 C 193.960938 138.902344 203.601562 139.960938 211.125 139.941406 C 223.722656 139.914062 236.316406 141.753906 248.375 145.390625 C 254.359375 147.195312 259.242188 148.851562 263.398438 152.332031 C 264.277344 153.070312 266.179688 154.839844 268.058594 157.511719 C 271.636719 162.59375 273.03125 168.058594 273.617188 171.632812 C 273.738281 174.410156 273.902344 180.601562 270.816406 186.011719 C 270.023438 187.402344 269.070312 188.664062 267.675781 189.695312 C 265.445312 191.34375 262.671875 191.949219 259.425781 192.046875 C 243.6875 192.515625 226.925781 193.371094 211.332031 190.882812 Z M 271.105469 212.777344 C 274.050781 209.855469 274.730469 205.949219 275.125 199.804688 C 276.082031 184.78125 274.527344 172.996094 273.847656 170.59375 C 273.59375 168.53125 273.171875 165.894531 272.492188 162.804688 C 271.308594 157.4375 268.917969 151.488281 267.585938 147.03125 C 264.523438 136.777344 239.925781 135.207031 230.632812 133.570312 C 211.839844 130.265625 197.796875 130.066406 191.578125 130.113281 C 184.207031 130.167969 179.652344 130.628906 176.253906 131.101562 C 167.667969 132.292969 160.917969 134.324219 154.5 136.535156 C 136.882812 142.613281 123.265625 149.5625 120.546875 150.9375 C 86.625 168.054688 67.15625 180.410156 67.496094 181.019531 C 67.804688 181.574219 83.757812 170.742188 107.042969 168.664062 C 112.023438 168.21875 123.832031 167.164062 125.335938 171.132812 C 127.46875 176.769531 107.445312 188.886719 106.550781 189.421875 C 95.425781 196.070312 85.40625 198.667969 82.605469 199.203125 C 87.617188 198.730469 115.757812 196.335938 133.246094 177.0625 C 137.105469 172.808594 141.917969 166.109375 148.074219 166.683594 C 150.984375 166.957031 153.546875 168.804688 159.9375 177.0625 C 169.910156 189.941406 174.148438 199.089844 174.769531 198.8125 C 175.492188 198.484375 172.105469 185.085938 162.90625 171.628906 C 156.289062 161.949219 148.835938 155.40625 143.398438 151.3125 C 146.910156 149.5625 152.019531 147.496094 158.457031 146.421875 C 162.601562 145.730469 166.335938 145.609375 169.449219 145.734375 C 167.582031 146.519531 166.269531 148.367188 166.269531 150.523438 L 166.269531 170.917969 C 166.269531 173.785156 168.59375 176.109375 171.457031 176.109375 C 172.980469 176.109375 174.351562 175.449219 175.300781 174.40625 C 175.9375 180.066406 176.597656 185.71875 177.285156 191.371094 C 178.0625 197.808594 178.871094 204.242188 179.714844 210.671875 C 180.5 216.769531 210.105469 216.175781 214.203125 216.355469 C 229.28125 217.011719 244.390625 217.007812 259.46875 216.332031 C 265.347656 216.070312 268.886719 214.976562 271.105469 212.777344 " fill-opacity="1" fill-rule="nonzero"/></g><path fill="#c9e265" d="M 81.832031 199.304688 C 81.839844 199.328125 82.109375 199.300781 82.605469 199.203125 C 82.09375 199.253906 81.824219 199.28125 81.832031 199.304688 " fill-opacity="1" fill-rule="nonzero"/><g clip-path="url(#70bfea423f)"><path fill="#c9e265" d="M 212.425781 223.453125 C 212.207031 222.800781 211.609375 222.347656 210.921875 222.308594 C 202.628906 221.855469 194.773438 221.144531 187.414062 220.257812 C 184.347656 219.890625 181.644531 222.277344 181.644531 225.367188 L 181.644531 226.601562 C 181.644531 229.242188 183.644531 231.453125 186.269531 231.722656 C 194.703125 232.582031 203.765625 233.226562 213.390625 233.53125 C 214.558594 233.570312 215.40625 232.433594 215.039062 231.328125 L 212.425781 223.453125 " fill-opacity="1" fill-rule="nonzero"/></g><g clip-path="url(#7e63d73c00)"><path fill="#c9e265" d="M 277.371094 225.492188 C 277.367188 225.457031 277.367188 225.421875 277.367188 225.386719 C 277.222656 222.417969 274.601562 220.179688 271.644531 220.519531 C 266.261719 221.132812 260.605469 221.65625 254.695312 222.046875 C 253.953125 222.097656 253.332031 222.628906 253.167969 223.355469 L 251.53125 230.703125 C 251.285156 231.796875 252.167969 232.816406 253.289062 232.738281 C 260.132812 232.25 266.667969 231.601562 272.859375 230.84375 C 275.53125 230.515625 277.5 228.179688 277.371094 225.492188 " fill-opacity="1" fill-rule="nonzero"/></g><path fill="#c9e265" d="M 255.0625 155.132812 L 203.648438 179.347656 C 203.648438 179.347656 220.457031 172.925781 255.0625 155.132812 " fill-opacity="1" fill-rule="nonzero"/><path fill="#c9e265" d="M 195.917969 179.347656 C 195.917969 179.347656 212.722656 172.925781 247.328125 155.132812 L 195.917969 179.347656 " fill-opacity="1" fill-rule="nonzero"/><g fill="#c9e265" fill-opacity="1"><g transform="translate(180.007318, 265.085726)"><g><path d="M 13.433594 -9.886719 C 13.433594 -12.867188 11.347656 -14.601562 7.195312 -14.601562 L 2.335938 -14.601562 C 2.003906 -14.601562 1.878906 -14.390625 1.878906 -14.058594 L 1.878906 -0.542969 C 1.878906 -0.207031 2.003906 0 2.335938 0 L 4.984375 0 C 5.320312 0 5.445312 -0.207031 5.445312 -0.542969 L 5.445312 -5.171875 L 7.195312 -5.171875 C 11.347656 -5.171875 13.433594 -6.902344 13.433594 -9.886719 Z M 5.445312 -14.308594 L 6.820312 -14.308594 C 9.136719 -14.308594 9.617188 -11.535156 9.617188 -9.886719 C 9.617188 -8.238281 9.136719 -5.464844 6.820312 -5.464844 L 5.445312 -5.464844 Z M 5.445312 -14.308594 "/></g></g></g><g fill="#c9e265" fill-opacity="1"><g transform="translate(198.043991, 265.085726)"><g><path d="M 14.933594 0 C 15.289062 0 15.394531 -0.292969 15.207031 -0.542969 L 11.761719 -5.003906 C 11.617188 -5.195312 11.367188 -5.195312 11.136719 -5.195312 C 8.09375 -5.195312 7.363281 -5.796875 6.652344 -6.675781 L 7.507812 -6.675781 C 11.785156 -6.675781 13.390625 -8.15625 13.390625 -10.785156 C 13.390625 -13.621094 11.867188 -14.601562 7.507812 -14.601562 L 2.335938 -14.601562 C 2.003906 -14.601562 1.878906 -14.390625 1.878906 -14.058594 L 1.878906 -0.542969 C 1.878906 -0.207031 2.003906 0 2.335938 0 L 4.984375 0 C 5.320312 0 5.445312 -0.207031 5.445312 -0.542969 L 5.445312 -6.675781 L 6.257812 -6.675781 L 10.910156 -0.542969 C 11.179688 -0.207031 11.492188 0 11.828125 0 Z M 6.820312 -14.308594 C 8.738281 -14.308594 9.574219 -13.390625 9.574219 -10.785156 C 9.574219 -8.175781 8.738281 -6.964844 6.820312 -6.964844 L 5.445312 -6.964844 L 5.445312 -14.308594 Z M 6.820312 -14.308594 "/></g></g></g><g fill="#c9e265" fill-opacity="1"><g transform="translate(217.852724, 265.085726)"><g><path d="M 2.335938 -14.601562 C 2.003906 -14.601562 1.878906 -14.390625 1.878906 -14.058594 L 1.878906 -0.542969 C 1.878906 -0.207031 2.003906 0 2.335938 0 L 11.847656 0 C 12.140625 0 12.304688 -0.207031 12.429688 -0.542969 L 13.722656 -3.773438 C 13.765625 -3.878906 13.808594 -3.984375 13.703125 -4.066406 L 13.453125 -4.253906 C 13.410156 -4.296875 13.371094 -4.296875 13.328125 -4.296875 C 13.265625 -4.296875 13.203125 -4.253906 13.121094 -4.214844 L 7.53125 -0.292969 L 5.445312 -0.292969 L 5.445312 -7.195312 L 11.179688 -7.089844 L 11.179688 -7.59375 L 5.445312 -7.488281 L 5.445312 -14.308594 L 7.53125 -14.308594 L 11.117188 -11.285156 C 11.410156 -11.054688 11.761719 -10.785156 12.054688 -10.785156 L 12.179688 -10.785156 C 12.515625 -10.785156 12.640625 -10.992188 12.640625 -11.324219 L 12.640625 -14.058594 C 12.640625 -14.390625 12.515625 -14.601562 12.179688 -14.601562 Z M 2.335938 -14.601562 "/></g></g></g><g fill="#c9e265" fill-opacity="1"><g transform="translate(236.24381, 265.085726)"><g><path d="M 7.757812 -8.925781 C 6.070312 -9.40625 4.859375 -10.011719 4.859375 -11.574219 C 4.859375 -12.722656 5.484375 -14.558594 6.925781 -14.558594 L 7.757812 -14.558594 L 11.761719 -9.949219 C 11.972656 -9.679688 12.285156 -9.40625 12.429688 -9.40625 L 12.578125 -9.40625 C 12.804688 -9.40625 12.867188 -9.554688 12.867188 -9.78125 L 12.867188 -14.121094 C 12.867188 -14.453125 12.742188 -14.640625 12.410156 -14.664062 L 7.757812 -14.851562 L 6.820312 -14.851562 C 2.753906 -14.851562 1.355469 -12.660156 1.355469 -10.824219 C 1.355469 -8.488281 2.648438 -6.820312 6.445312 -5.671875 C 8.300781 -5.109375 9.636719 -4.734375 9.636719 -2.898438 C 9.636719 -1.753906 8.949219 -0.0820312 7.570312 -0.0820312 L 6.550781 -0.0820312 L 2.542969 -4.691406 C 2.335938 -4.964844 2.023438 -5.234375 1.878906 -5.234375 L 1.730469 -5.234375 C 1.5 -5.234375 1.4375 -5.089844 1.4375 -4.859375 L 1.4375 -0.519531 C 1.4375 -0.1875 1.5625 0 1.898438 0.0195312 L 6.550781 0.207031 L 7.675781 0.207031 C 11.742188 0.207031 13.433594 -1.835938 13.433594 -4.339844 C 13.433594 -7.007812 10.636719 -8.113281 7.757812 -8.925781 Z M 7.757812 -8.925781 "/></g></g></g><g fill="#c9e265" fill-opacity="1"><g transform="translate(255.218634, 265.085726)"><g><path d="M 7.757812 -8.925781 C 6.070312 -9.40625 4.859375 -10.011719 4.859375 -11.574219 C 4.859375 -12.722656 5.484375 -14.558594 6.925781 -14.558594 L 7.757812 -14.558594 L 11.761719 -9.949219 C 11.972656 -9.679688 12.285156 -9.40625 12.429688 -9.40625 L 12.578125 -9.40625 C 12.804688 -9.40625 12.867188 -9.554688 12.867188 -9.78125 L 12.867188 -14.121094 C 12.867188 -14.453125 12.742188 -14.640625 12.410156 -14.664062 L 7.757812 -14.851562 L 6.820312 -14.851562 C 2.753906 -14.851562 1.355469 -12.660156 1.355469 -10.824219 C 1.355469 -8.488281 2.648438 -6.820312 6.445312 -5.671875 C 8.300781 -5.109375 9.636719 -4.734375 9.636719 -2.898438 C 9.636719 -1.753906 8.949219 -0.0820312 7.570312 -0.0820312 L 6.550781 -0.0820312 L 2.542969 -4.691406 C 2.335938 -4.964844 2.023438 -5.234375 1.878906 -5.234375 L 1.730469 -5.234375 C 1.5 -5.234375 1.4375 -5.089844 1.4375 -4.859375 L 1.4375 -0.519531 C 1.4375 -0.1875 1.5625 0 1.898438 0.0195312 L 6.550781 0.207031 L 7.675781 0.207031 C 11.742188 0.207031 13.433594 -1.835938 13.433594 -4.339844 C 13.433594 -7.007812 10.636719 -8.113281 7.757812 -8.925781 Z M 7.757812 -8.925781 "/></g></g></g><g clip-path="url(#6de43c6528)"><path fill="#008037" d="M 127.90625 219.746094 L 137.566406 219.746094 C 139.992188 219.746094 139.992188 216.019531 137.566406 216.019531 L 111.761719 216.019531 C 109.339844 216.019531 109.339844 212.292969 111.761719 212.292969 L 123.679688 212.292969 C 126.105469 212.292969 126.023438 208.777344 124.015625 208.609375 L 117.199219 208.609375 C 114.773438 208.609375 114.773438 204.882812 117.199219 204.882812 L 118.996094 204.882812 C 119.625 204.800781 120.417969 204.003906 120.417969 203.082031 C 120.417969 202.164062 119.75 201.410156 118.871094 201.242188 L 112.265625 201.242188 C 109.839844 201.242188 109.839844 197.515625 112.265625 197.515625 L 119.207031 197.515625 C 121.632812 197.515625 121.550781 194 119.542969 193.832031 L 104.988281 193.832031 C 102.5625 193.832031 102.5625 190.105469 104.988281 190.105469 L 126.105469 190.148438 C 127.070312 190.273438 127.863281 190.777344 128.40625 191.613281 L 140.660156 210.578125 C 141.957031 212.585938 144.882812 212.585938 146.222656 210.578125 L 158.597656 191.613281 C 159.226562 190.648438 160.230469 190.105469 161.359375 190.105469 L 172.355469 190.105469 C 175.03125 190.105469 176.582031 193.078125 175.074219 195.296875 L 154.417969 225.523438 C 153.621094 226.652344 153.621094 228.117188 154.417969 229.25 L 176.203125 261.234375 C 177.710938 263.453125 176.121094 266.425781 173.484375 266.425781 L 161.945312 266.425781 C 160.773438 266.425781 159.8125 265.882812 159.183594 264.917969 L 145.804688 244.488281 C 144.507812 242.480469 141.578125 242.480469 140.28125 244.488281 L 126.816406 264.960938 C 126.191406 265.921875 125.1875 266.46875 124.058594 266.46875 L 108.25 266.46875 C 107.957031 265.378906 108.753906 264.25 109.882812 264.164062 L 112.601562 264.164062 C 115.027344 264.164062 115.027344 260.4375 112.601562 260.4375 L 103.902344 260.4375 C 101.476562 260.4375 101.476562 256.710938 103.902344 256.710938 L 116.574219 256.710938 C 118.996094 256.710938 118.996094 252.988281 116.574219 252.988281 C 115.277344 252.988281 113.019531 253.28125 113.019531 251.144531 C 113.019531 250.140625 113.855469 249.304688 114.859375 249.304688 L 125.6875 249.304688 C 128.113281 249.304688 128.113281 245.578125 125.6875 245.578125 L 118.160156 245.578125 C 115.734375 245.578125 115.734375 241.851562 118.160156 241.851562 L 130.625 241.851562 C 133.046875 241.851562 133.046875 238.125 130.625 238.125 L 121.925781 238.125 C 119.5 238.125 119.5 234.398438 121.925781 234.398438 C 126.734375 234.398438 131.542969 234.398438 136.351562 234.398438 C 138.777344 234.398438 138.777344 230.671875 136.351562 230.671875 L 130.539062 230.671875 C 128.113281 230.671875 128.113281 226.945312 130.539062 226.945312 L 132.589844 226.945312 C 134.886719 226.695312 134.722656 223.261719 132.378906 223.261719 C 130.121094 223.261719 127.863281 223.261719 125.605469 223.261719 C 123.179688 223.261719 123.179688 219.535156 125.605469 219.535156 L 127.90625 219.535156 Z M 120.546875 227.199219 L 125.6875 227.199219 C 128.113281 227.199219 128.113281 230.925781 125.6875 230.925781 L 120.546875 230.925781 C 118.078125 230.882812 118.078125 227.199219 120.546875 227.199219 Z M 102.6875 204.96875 L 111.34375 204.96875 C 113.769531 204.96875 113.769531 208.695312 111.34375 208.695312 L 102.6875 208.695312 C 100.222656 208.652344 100.222656 204.96875 102.6875 204.96875 Z M 99.175781 190.230469 C 100.179688 190.230469 102.230469 190.0625 102.230469 192.074219 C 102.230469 194.082031 100.179688 193.914062 99.175781 193.914062 C 96.710938 193.957031 96.710938 190.230469 99.175781 190.230469 Z M 114.316406 234.609375 C 115.777344 234.609375 118.328125 234.230469 118.328125 236.449219 C 118.328125 238.667969 115.777344 238.292969 114.316406 238.292969 C 111.847656 238.292969 111.847656 234.609375 114.316406 234.609375 Z M 110.089844 219.746094 L 119.207031 219.746094 C 121.632812 219.746094 121.632812 223.472656 119.207031 223.472656 L 110.089844 223.472656 C 107.664062 223.472656 107.664062 219.746094 110.089844 219.746094 Z M 100.136719 242.019531 L 113.019531 242.019531 C 115.445312 242.019531 115.445312 245.746094 113.019531 245.746094 L 100.136719 245.746094 C 97.671875 245.746094 97.671875 242.019531 100.136719 242.019531 Z M 106.535156 249.429688 L 109.964844 249.429688 C 112.390625 249.429688 112.390625 253.15625 109.964844 253.15625 L 106.535156 253.15625 C 104.109375 253.15625 104.109375 249.429688 106.535156 249.429688 Z M 106.535156 249.429688 " fill-opacity="1" fill-rule="evenodd"/></g><g fill="#c9e265" fill-opacity="1"><g transform="translate(239.952191, 130.542043)"><g><path d="M 6.785156 1.863281 C 7.554688 2.074219 7.921875 1.742188 7.851562 1.128906 L 6.800781 -5.664062 L 18.460938 -2.464844 L 19.515625 4.332031 C 19.621094 4.953125 19.914062 5.464844 20.574219 5.648438 L 25.925781 7.117188 C 26.511719 7.277344 26.828125 6.851562 26.773438 6.324219 L 22.664062 -20.359375 C 22.585938 -20.929688 22.226562 -21.503906 21.605469 -21.671875 L 19.367188 -22.289062 C 18.855469 -22.429688 18.21875 -22.128906 17.859375 -21.675781 L 0.703125 -0.832031 C 0.386719 -0.40625 0.441406 0.121094 1.027344 0.28125 Z M 18.382812 -3.039062 L 6.722656 -6.238281 L 6.574219 -7.148438 L 16 -18.636719 Z M 18.382812 -3.039062 "/></g></g></g><g fill="#008037" fill-opacity="1"><g transform="translate(111.228405, 154.750572)"><g><path d="M 6.429688 -34.839844 C 6.097656 -35.347656 5.695312 -35.542969 5.1875 -35.210938 L -13.238281 -23.152344 C -13.75 -22.820312 -13.730469 -22.375 -13.398438 -21.867188 L -9.484375 -15.882812 C -9.253906 -15.535156 -9.011719 -15.375 -8.664062 -15.601562 L -8.472656 -15.726562 C -8.1875 -15.914062 -8.136719 -16.535156 -8.121094 -17.136719 L -7.472656 -26.289062 L -6.457031 -26.953125 L 7.289062 -5.949219 C 7.621094 -5.441406 8.019531 -5.246094 8.527344 -5.582031 L 12.570312 -8.226562 C 13.082031 -8.558594 13.0625 -9 12.730469 -9.511719 L -1.011719 -30.515625 L 0.00390625 -31.183594 L 8.648438 -28.113281 C 9.238281 -27.90625 9.796875 -27.679688 10.082031 -27.867188 L 10.273438 -27.992188 C 10.625 -28.222656 10.574219 -28.507812 10.34375 -28.855469 Z M 6.429688 -34.839844 "/></g></g></g><g fill="#008037" fill-opacity="1"><g transform="translate(135.06375, 139.995335)"><g><path d="M 2.726562 -2.296875 C 2.972656 -1.738281 3.335938 -1.484375 3.890625 -1.730469 L 8.304688 -3.695312 C 8.859375 -3.941406 8.914062 -4.382812 8.667969 -4.9375 L -1.351562 -27.457031 C -1.601562 -28.011719 -1.964844 -28.265625 -2.519531 -28.019531 L -6.933594 -26.054688 C -7.488281 -25.808594 -7.542969 -25.367188 -7.292969 -24.8125 Z M 2.726562 -2.296875 "/></g></g></g><g fill="#008037" fill-opacity="1"><g transform="translate(149.704218, 133.03575)"><g><path d="M 26.40625 -6.644531 C 27.035156 -6.800781 27.089844 -7.367188 26.644531 -7.722656 L 18.574219 -14.085938 C 18.234375 -14.351562 17.789062 -14.242188 17.382812 -14.140625 C 12 -12.785156 10.441406 -13.53125 8.796875 -14.761719 L 10.308594 -15.144531 C 17.867188 -17.046875 20.050781 -20.378906 18.878906 -25.027344 C 17.617188 -30.042969 14.488281 -31.097656 6.78125 -29.160156 L -2.367188 -26.855469 C -2.957031 -26.707031 -3.085938 -26.285156 -2.9375 -25.695312 L 3.078125 -1.792969 C 3.226562 -1.203125 3.539062 -0.890625 4.132812 -1.039062 L 8.816406 -2.21875 C 9.40625 -2.367188 9.535156 -2.792969 9.386719 -3.382812 L 6.65625 -14.226562 L 8.09375 -14.585938 L 19.046875 -5.8125 C 19.675781 -5.34375 20.324219 -5.113281 20.914062 -5.261719 Z M 5.695312 -28.335938 C 9.085938 -29.191406 10.972656 -27.9375 12.132812 -23.328125 C 13.292969 -18.71875 12.355469 -16.207031 8.960938 -15.355469 L 6.527344 -14.742188 L 3.261719 -27.722656 Z M 5.695312 -28.335938 "/></g></g></g><g fill="#008037" fill-opacity="1"><g transform="translate(179.928975, 125.761469)"><g><path d="M 7.035156 -0.164062 C 7.832031 -0.179688 8.089844 -0.605469 7.847656 -1.171875 L 4.890625 -7.378906 L 16.980469 -7.65625 L 19.9375 -1.449219 C 20.21875 -0.886719 20.644531 -0.476562 21.332031 -0.492188 L 26.882812 -0.621094 C 27.488281 -0.632812 27.667969 -1.132812 27.46875 -1.621094 L 15.871094 -26.007812 C 15.632812 -26.535156 15.128906 -26.980469 14.480469 -26.964844 L 12.160156 -26.910156 C 11.628906 -26.898438 11.105469 -26.429688 10.890625 -25.890625 L 0.433594 -1 C 0.253906 -0.5 0.457031 -0.0117188 1.066406 -0.0234375 Z M 16.738281 -8.183594 L 4.648438 -7.90625 L 4.25 -8.734375 L 9.980469 -22.445312 Z M 16.738281 -8.183594 "/></g></g></g><g fill="#008037" fill-opacity="1"><g transform="translate(210.48941, 125.334973)"><g><path d="M 7.433594 -25.660156 C 7.246094 -25.695312 7.074219 -25.613281 7.042969 -25.464844 L 7.03125 -25.390625 C 7 -25.242188 7 -25.046875 7.164062 -24.703125 L 8.152344 -22.683594 L 3.625 -0.277344 C 3.503906 0.320312 3.652344 0.738281 4.25 0.859375 L 9.582031 1.933594 C 9.765625 1.972656 9.863281 1.875 9.894531 1.726562 L 9.933594 1.539062 C 9.984375 1.28125 9.976562 1.121094 9.820312 0.742188 L 5.683594 -7.777344 L 8.53125 -21.867188 L 20.738281 3.179688 C 21.128906 3.917969 21.546875 4.351562 22.03125 4.449219 L 23.449219 4.734375 C 24.046875 4.855469 24.34375 4.527344 24.464844 3.933594 L 29.34375 -20.226562 C 29.464844 -20.820312 29.316406 -21.238281 28.71875 -21.359375 L 24.46875 -22.21875 C 24.285156 -22.257812 24.1875 -22.160156 24.15625 -22.011719 L 24.117188 -21.824219 C 24.066406 -21.5625 24.027344 -21.375 24.230469 -21.023438 L 27.570312 -14.140625 L 25.699219 -4.859375 L 25.621094 -4.875 L 15.886719 -23.136719 C 15.515625 -23.792969 15.222656 -24.085938 14.664062 -24.199219 Z M 7.433594 -25.660156 "/></g></g></g><path stroke-linecap="butt" transform="matrix(0.747414, 0, 0, 0.75, 172.326908, 238.672192)" fill="none" stroke-linejoin="miter" d="M 0.00162884 0.499578 L 140.491237 0.499578 " stroke="#008037" stroke-width="1" stroke-opacity="1" stroke-miterlimit="4"/></svg>